<svg width="299" height="299" viewBox="0 0 299 299" fill="none" xmlns="http://www.w3.org/2000/svg">
<circle cx="149.5" cy="149.5" r="145.5" stroke="white" stroke-width="8"/>
<path d="M134.585 133.245C146.643 123.05 148.062 99.9155 148.062 95.6023C148.062 91.2892 152.672 111.287 149.835 119.129C146.998 126.971 136.713 140.302 127.847 152.458C118.981 164.613 129.266 179.121 131.394 180.297C133.521 181.474 120.4 167.75 140.969 145.008C161.538 122.266 154.445 99.9155 157.283 117.56C160.12 135.205 146.643 149.713 146.643 149.713C146.643 149.713 140.969 152.458 136.713 168.142C132.458 183.826 168.277 139.518 148.062 159.908C127.847 180.297 160.12 140.302 160.12 140.302C160.12 140.302 162.957 155.595 148.062 169.71C133.167 183.826 149.835 205 149.835 205C149.835 205 133.521 195.197 122.528 180.297C111.534 165.397 122.528 143.439 134.585 133.245Z" fill="url(#paint0_linear_7_71)"/>
<path d="M164.73 133.245C163.666 124.618 161.538 121.481 161.538 121.481C161.538 121.481 168.623 131.223 170.05 138.734C171.597 146.876 169.695 154.418 167.922 159.908C166.149 165.397 161.184 175.592 157.283 177.16C153.381 178.729 153.381 188.532 153.381 188.532C153.381 188.532 160.829 179.121 170.05 172.455C179.27 165.789 179.27 150.889 179.27 150.889C179.27 150.889 181.264 155.04 181.753 157.947C182.707 163.616 180.689 169.71 179.27 172.455C177.852 175.2 175.724 178.337 164.73 186.963C153.736 195.589 155.155 203.432 153.381 202.647C151.608 201.863 147.707 191.668 146.643 188.532C145.579 185.395 146.209 181.148 148.062 177.16C150.455 172.012 153.381 172.455 158.701 168.142C164.021 163.829 163.749 155.18 164.73 149.713C165.862 143.405 165.794 141.871 164.73 133.245Z" fill="url(#paint1_linear_7_71)"/>
<path d="M134.585 133.245C146.643 123.05 148.062 99.9155 148.062 95.6023C148.062 91.2892 152.672 111.287 149.835 119.129C146.998 126.971 136.713 140.302 127.847 152.458C118.981 164.613 129.266 179.121 131.394 180.297C133.521 181.474 120.4 167.75 140.969 145.008C161.538 122.266 154.445 99.9155 157.283 117.56C160.12 135.205 146.643 149.713 146.643 149.713C146.643 149.713 140.969 152.458 136.713 168.142C132.458 183.826 168.277 139.518 148.062 159.908C127.847 180.297 160.12 140.302 160.12 140.302C160.12 140.302 162.957 155.595 148.062 169.71C133.167 183.826 149.835 205 149.835 205C149.835 205 133.521 195.197 122.528 180.297C111.534 165.397 122.528 143.439 134.585 133.245Z" stroke="#D9D9D9"/>
<path d="M164.73 133.245C163.666 124.618 161.538 121.481 161.538 121.481C161.538 121.481 168.623 131.223 170.05 138.734C171.597 146.876 169.695 154.418 167.922 159.908C166.149 165.397 161.184 175.592 157.283 177.16C153.381 178.729 153.381 188.532 153.381 188.532C153.381 188.532 160.829 179.121 170.05 172.455C179.27 165.789 179.27 150.889 179.27 150.889C179.27 150.889 181.264 155.04 181.753 157.947C182.707 163.616 180.689 169.71 179.27 172.455C177.852 175.2 175.724 178.337 164.73 186.963C153.736 195.589 155.155 203.432 153.381 202.647C151.608 201.863 147.707 191.668 146.643 188.532C145.579 185.395 146.209 181.148 148.062 177.16C150.455 172.012 153.381 172.455 158.701 168.142C164.021 163.829 163.749 155.18 164.73 149.713C165.862 143.405 165.794 141.871 164.73 133.245Z" stroke="#D9D9D9"/>
<path fill-rule="evenodd" clip-rule="evenodd" d="M274.971 161.023C277.324 161.023 279.177 163.044 278.894 165.38C272.142 221.185 229.999 266.085 175.575 276.97C173.144 277.456 170.92 275.563 170.92 273.085V273.085C170.92 271.128 172.333 269.462 174.251 269.074C225.118 258.787 264.499 216.826 270.922 164.663C271.175 162.606 272.899 161.023 274.971 161.023V161.023ZM272.873 126.023C275.387 126.023 277.289 123.742 276.743 121.288C265.645 71.3963 225.849 32.3148 175.573 22.2596C173.143 21.7735 170.92 23.6662 170.92 26.1448V26.1448C170.92 28.1014 172.333 29.7675 174.25 30.1553C221.224 39.6546 258.403 76.166 268.877 122.779C269.299 124.656 270.948 126.023 272.873 126.023V126.023ZM27.0502 126.023C28.9747 126.023 30.6236 124.656 31.0455 122.778C42.0125 73.9727 82.2563 36.2414 132.366 28.9956C134.385 28.7036 135.92 26.9946 135.92 24.9544V24.9544C135.92 22.5673 133.846 20.7028 131.483 21.0394C77.8653 28.6766 34.7981 69.0587 23.1797 121.287C22.6338 123.741 24.536 126.023 27.0502 126.023V126.023ZM24.9516 161.023C22.5987 161.023 20.7459 163.044 21.0286 165.38C28.0735 223.6 73.6379 269.95 131.481 278.19C133.845 278.527 135.92 276.662 135.92 274.275V274.275C135.92 272.235 134.384 270.526 132.365 270.234C78.2895 262.414 35.7034 219.093 29.0013 164.664C28.748 162.607 27.0236 161.023 24.9516 161.023V161.023Z" fill="white"/>
<path fill-rule="evenodd" clip-rule="evenodd" d="M230.777 160.146C233.194 160.146 235.074 162.265 234.654 164.645C229.177 195.717 207.02 221.036 177.76 231.024C175.226 231.89 172.675 229.945 172.675 227.267V227.267C172.675 225.48 173.849 223.912 175.538 223.327C201.778 214.223 221.653 191.504 226.709 163.623C227.068 161.64 228.762 160.146 230.777 160.146V160.146ZM226.987 125.146C229.705 125.146 231.656 122.529 230.72 119.978C221.812 95.7117 202.279 76.575 177.759 68.2048C175.225 67.3397 172.675 69.2846 172.675 71.9624V71.9624C172.675 73.7501 173.849 75.3173 175.538 75.9032C197.484 83.5171 214.978 100.655 223.073 122.372C223.686 124.016 225.233 125.146 226.987 125.146V125.146ZM72.9355 125.146C74.6898 125.146 76.2364 124.016 76.8492 122.372C86.1287 97.4788 107.758 78.6009 134.286 73.1887C136.229 72.7924 137.675 71.1151 137.675 69.1323V69.1323C137.675 66.6792 135.498 64.7886 133.092 65.2671C103.512 71.15 79.3989 92.2038 69.2032 119.977C68.2666 122.528 70.2179 125.146 72.9355 125.146V125.146ZM69.1454 160.146C66.7285 160.146 64.8492 162.265 65.2687 164.645C71.4089 199.481 98.516 227.086 133.092 233.962C135.498 234.441 137.675 232.55 137.675 230.097V230.097C137.675 228.114 136.23 226.437 134.287 226.041C103.23 219.705 78.8881 194.915 73.2141 163.622C72.8545 161.639 71.1608 160.146 69.1454 160.146V160.146Z" fill="white"/>
<path fill-rule="evenodd" clip-rule="evenodd" d="M246.829 160.146C249.204 160.146 251.067 162.198 250.731 164.549C244.949 204.926 215.37 237.624 176.66 247.978C174.174 248.643 171.798 246.723 171.798 244.151V244.151C171.798 242.275 173.093 240.655 174.903 240.164C210.301 230.562 237.345 200.658 242.765 163.726C243.063 161.695 244.776 160.146 246.829 160.146V160.146ZM243.48 125.146C246.117 125.146 248.05 122.661 247.273 120.141C237.055 87.01 210.307 61.1294 176.66 52.1292C174.175 51.4645 171.798 53.3843 171.798 55.9568V55.9568C171.798 57.8322 173.092 59.4519 174.902 59.9429C205.64 68.2809 230.079 91.9267 239.53 122.19C240.073 123.927 241.66 125.146 243.48 125.146V125.146ZM57.3202 125.146C59.1401 125.146 60.7275 123.927 61.2701 122.19C71.4745 89.514 99.1523 64.553 133.365 58.2452C135.33 57.8829 136.798 56.197 136.798 54.1992V54.1992C136.798 51.7643 134.649 49.8815 132.252 50.3147C94.8298 57.0792 64.5543 84.3884 53.5272 120.141C52.7501 122.661 54.6835 125.146 57.3202 125.146V125.146ZM53.9714 160.146C51.5964 160.146 49.733 162.197 50.0696 164.548C56.2488 207.702 89.6112 242.085 132.253 249.793C134.649 250.226 136.798 248.343 136.798 245.908V245.908C136.798 243.91 135.328 242.224 133.364 241.862C94.3476 234.668 63.8306 203.215 58.0353 163.727C57.7372 161.696 56.024 160.146 53.9714 160.146V160.146Z" fill="white"/>
<path fill-rule="evenodd" clip-rule="evenodd" d="M260.052 160.146C262.412 160.146 264.269 162.175 263.966 164.516C257.805 212.121 222.523 250.592 176.569 261.482C174.106 262.065 171.798 260.157 171.798 257.626V257.626C171.798 255.715 173.144 254.075 175.001 253.629C217.526 243.429 250.171 207.827 255.995 163.765C256.266 161.717 257.986 160.146 260.052 160.146V160.146ZM257.31 125.146C259.883 125.146 261.801 122.767 261.146 120.28C250.405 79.4583 217.778 47.5134 176.57 37.7485C174.107 37.1648 171.798 39.0729 171.798 41.6041V41.6041C171.798 43.5146 173.143 45.1548 175 45.6004C213.113 54.7419 243.29 84.2873 253.335 122.041C253.816 123.852 255.436 125.146 257.31 125.146V125.146ZM42.6125 125.146C44.4865 125.146 46.1063 123.851 46.5882 122.04C57.3563 81.5682 91.2604 50.529 133.275 43.9474C135.281 43.6333 136.798 41.9304 136.798 39.9007V39.9007C136.798 37.5015 134.707 35.6315 132.335 35.9963C86.9311 42.9825 50.2874 76.5344 38.7766 120.28C38.122 122.768 40.04 125.146 42.6125 125.146V125.146ZM39.871 160.146C37.5108 160.146 35.6541 162.176 35.957 164.517C42.5143 215.178 82.052 255.496 132.334 263.233C134.705 263.598 136.798 261.728 136.798 259.329V259.329C136.798 257.299 135.279 255.596 133.274 255.282C86.7221 247.989 50.1277 210.671 43.9279 163.766C43.6572 161.718 41.9367 160.146 39.871 160.146V160.146Z" fill="white"/>
<defs>
<linearGradient id="paint0_linear_7_71" x1="150" y1="95" x2="150" y2="205" gradientUnits="userSpaceOnUse">
<stop stop-color="#088DED"/>
<stop offset="0.989583" stop-color="#C0C6CA" stop-opacity="0.67"/>
</linearGradient>
<linearGradient id="paint1_linear_7_71" x1="150" y1="95" x2="150" y2="205" gradientUnits="userSpaceOnUse">
<stop stop-color="#088DED"/>
<stop offset="0.989583" stop-color="#C0C6CA" stop-opacity="0.67"/>
</linearGradient>
</defs>
</svg>
